<svg xmlns="http://www.w3.org/2000/svg" version="1.1" xmlns:xlink="http://www.w3.org/1999/xlink" xmlns:svgjs="http://svgjs.dev/svgjs" width="1000" height="1125" viewBox="0 0 1000 1125"><g transform="matrix(1,0,0,1,0.00017081513067296328,0)"><svg viewBox="0 0 320 360" data-background-color="#fdf8f1" preserveAspectRatio="xMidYMid meet" height="1125" width="1000" xmlns="http://www.w3.org/2000/svg" xmlns:xlink="http://www.w3.org/1999/xlink"><g id="tight-bounds" transform="matrix(1,0,0,1,0.00005466084189720277,0)"><svg viewBox="0 0 320 360" height="360" width="320"><g><svg></svg></g><g><svg viewBox="0 0 320 360" height="360" width="320"><g><path transform="translate(-119.39272,-98.31927) scale(5.58313,5.58313)" d="M36.7 23.5c0-0.2 0.1-0.4 0.3-0.4 0.2 0 0.4 0.1 0.4 0.4 0.1 0 0.3 0 0.4-0.1 0.4 0 0.8-0.1 1.1 0 0.3 0.1 0.5 0.1 0.8 0.2 0.3 0.1 0.5 0 0.7-0.1 0.4-0.1 0.7-0.3 1.1-0.4 0.2-0.1 0.3-0.1 0.5-0.1 0.2-0.1 0.4-0.1 0.7-0.2 0.5-0.1 1-0.2 1.4-0.4 0.4-0.2 0.8-0.2 1.2-0.3 0.2 0 0.3-0.1 0.5-0.2 0.1 0 0.1-0.1 0.2-0.2 0.2-0.1 0.3-0.2 0.5-0.1 0.1 0.1 0.3 0.1 0.4 0h0.1c0.6 0 1.2-0.1 1.9 0 0.1 0 0.2 0 0.2 0 0.3-0.2 0.7-0.2 1.1-0.2 0.1 0 0.3 0 0.4 0h0.1c0.4 0 0.8 0 1.1 0.1 0.3 0 0.5 0.1 0.8 0.2 0.3 0 0.5 0 0.8 0.1 0.2 0 0.4 0 0.6 0 0.1 0 0.2 0 0.2 0 0.4 0.1 0.8 0.1 1.2 0.1 0.3 0.1 0.6 0.2 1 0.2 0.1 0 0.2 0 0.3 0 0.1 0 0.2 0.1 0.3 0.1l0.1 0.1c0.4 0 0.7 0.2 1.1 0.2 0.1 0 0.3 0 0.4 0.1 0.3 0.2 0.7 0.3 1.1 0.3 0.2 0 0.3 0.1 0.4 0.2 0.3 0.1 0.5 0.2 0.8 0.3 0.2 0.1 0.4 0 0.6 0.1 0.3 0.1 0.7 0.2 1 0.5 0.2 0.2 0.4 0.2 0.7 0.4 0.1 0 0.2 0.1 0.3 0.2 0.3 0.2 0.6 0.4 0.9 0.5 0.1 0 0.2 0.1 0.3 0.1 0.3 0.2 0.6 0.5 1 0.7 0.2 0.1 0.3 0.2 0.5 0.3h0.1c0.3 0.3 0.7 0.5 1 0.8 0.3 0.3 0.5 0.5 0.9 0.7 0 0 0 0 0 0.1 0.1 0.2 0.2 0.3 0.4 0.4 0.2 0.1 0.3 0.2 0.4 0.3 0.3 0.2 0.6 0.4 0.8 0.6 0.1 0.1 0.2 0.2 0.4 0.4 0.1 0.1 0.2 0.2 0.3 0.2 0.4 0.1 0.6 0.4 0.9 0.7 0.2 0.2 0.5 0.5 0.7 0.7 0.1 0.1 0.2 0.3 0.3 0.5 0.2 0.6 0.5 1.2 0.8 1.7 0 0 0 0.1 0.1 0.2v0.1c0.2 0.2 0.3 0.5 0.5 0.7 0.1 0.1 0.1 0.2 0.2 0.3 0.2 0.3 0.3 0.7 0.5 1 0.3 0.5 0.5 1 0.7 1.5v0.1c0.1 0.2 0.2 0.4 0.3 0.7 0 0.2 0.2 0.4 0.3 0.7 0.1 0.5 0.4 1 0.5 1.6 0 0.1 0.1 0.2 0.1 0.4 0.1 0.3 0.2 0.6 0.3 0.9 0 0.1 0.1 0.2 0.2 0.3 0.2 0.2 0.2 0.4 0.2 0.6-0.1 0.4 0 0.8 0.1 1.2 0 0.1 0 0.2 0 0.4 0.1 0.4 0.2 0.9 0.2 1.3 0 0.1 0 0.3 0 0.4 0 0.3 0.1 0.6 0.3 0.9 0 0.1 0.1 0.1 0.1 0.1 0.1 0.1 0.2 0.3 0.3 0.4 0.1 0.1 0.1 0.1 0.2 0.2 0.2 0.2 0.3 0.4 0.3 0.7 0 0.1-0.1 0.3-0.1 0.4 0 0.1 0 0.3 0.1 0.4 0.1 0.1 0.1 0.2 0.1 0.3 0 0.1-0.1 0.2-0.2 0.2v0c-0.1 0.3-0.5 0.4-0.6 0.7-0.1 0.4-0.2 0.8-0.3 1.2-0.1 0.3-0.1 0.5-0.1 0.8 0 0.3-0.1 0.5-0.1 0.8-0.1 0.4-0.2 0.8-0.3 1.2 0 0.2-0.1 0.4-0.1 0.6 0.1 0.1 0.2 0.2 0.3 0.2 0.2 0.2 0.4 0.4 0.6 0.6 0.1 0.1 0.1 0.2 0 0.2-0.1 0.1-0.2 0.1-0.3 0.1-0.1-0.1-0.3-0.2-0.4-0.2-0.1-0.1-0.3-0.2-0.5-0.1 0 0.2-0.1 0.4-0.1 0.5-0.1 0.2-0.2 0.5-0.2 0.7-0.1 0.4-0.3 0.7-0.4 1.1-0.2 0.5-0.4 0.9-0.6 1.3-0.1 0.2-0.2 0.4-0.3 0.6v0c0 0.3-0.3 0.6-0.4 0.9-0.2 0.4-0.4 0.8-0.6 1.3-0.1 0.2-0.2 0.4-0.3 0.5-0.2 0.5-0.4 0.9-0.7 1.3-0.2 0.3-0.4 0.5-0.6 0.6-0.2 0.2-0.4 0.4-0.6 0.6-0.1 0.1-0.2 0.2-0.3 0.3-0.1 0.1-0.1 0.1-0.2 0.2-0.2 0.3-0.5 0.5-0.7 0.8-0.2 0.2-0.3 0.4-0.6 0.6-0.2 0.2-0.4 0.5-0.7 0.6-0.1 0.1-0.2 0.3-0.3 0.4-0.1 0.1-0.2 0.3-0.3 0.4 0 0.2 0.1 0.4 0.1 0.5 0 0.3-0.3 0.4-0.5 0.2-0.3-0.2-0.3-0.2-0.6 0-0.3 0.2-0.6 0.5-1 0.6-0.1 0-0.1 0.1-0.2 0.1-0.2 0.1-0.3 0.3-0.5 0.4-0.2 0.2-0.5 0.3-0.7 0.5-0.1 0.1-0.2 0.1-0.3 0.2-0.3 0.2-0.6 0.3-0.9 0.6-0.1 0.1-0.2 0.1-0.3 0.2 0 0.1 0 0.1 0 0.2 0 0.2-0.2 0.4-0.5 0.3-0.3-0.1-0.5 0-0.8 0-0.3 0.1-0.6 0.3-0.9 0.4-0.1 0-0.2 0.1-0.3 0.2-0.3 0.2-0.6 0.3-0.9 0.4-0.2 0-0.4 0.2-0.6 0.2-0.1 0-0.2 0.1-0.3 0.1h-0.1c-0.4 0.3-0.8 0.5-1.2 0.8-0.1 0-0.1 0.1-0.2 0.2-0.1 0.2-0.2 0.3-0.4 0.3-0.5 0-0.7 0.4-0.6 0.8 0 0.1 0.1 0.2 0.1 0.3 0.1 0.2 0 0.4-0.1 0.5-0.1 0.1-0.4 0.1-0.5-0.1-0.2-0.2-0.3-0.4-0.4-0.7-0.1-0.2-0.3-0.4-0.5-0.5-0.2-0.1-0.4-0.1-0.6 0-0.1 0-0.1 0.1-0.2 0.1-0.2 0.2-0.5 0.3-0.8 0.2-0.1 0-0.3 0-0.3 0.1-0.1 0.1-0.1 0.3 0 0.4 0.2 0.2 0.1 0.4 0.1 0.7 0 0.4-0.3 0.6-0.7 0.4-0.1-0.1-0.2-0.1-0.3-0.2-0.1 0-0.1-0.1-0.1-0.2-0.1-0.1-0.1-0.3-0.2-0.5-0.2 0.1-0.4 0.1-0.6 0.2-0.1 0-0.2 0.1-0.3 0.1-0.3 0-0.4 0-0.5-0.3-0.1-0.3-0.3-0.3-0.5-0.4-0.4-0.1-0.9-0.1-1.3-0.3h-0.1c-0.4-0.3-0.8-0.3-1.3-0.3-0.3 0-0.6 0.1-0.9 0.1-0.3 0-0.5 0.1-0.7 0.3-0.1 0.1-0.2 0.2-0.3 0.2-0.1-0.1-0.1-0.2-0.2-0.3v-0.1c0-0.1-0.1-0.2-0.2-0.1-0.2 0.1-0.4-0.1-0.6-0.2-0.1-0.1-0.3-0.3-0.3-0.5-0.1-0.1-0.2-0.2-0.3-0.2-0.2 0-0.5-0.1-0.7-0.1-0.1 0-0.2 0-0.2-0.1-0.1-0.1-0.2-0.1-0.4-0.1-0.1 0-0.1-0.1-0.2-0.1 0.2 0.2 0.3 0.4 0.4 0.6 0 0.1 0.1 0.1 0.1 0.2 0.1 0.2 0 0.3-0.3 0.3-0.2 0-0.2 0-0.3 0.1 0 0.2 0 0.3 0 0.5 0 0.1 0 0.2-0.2 0.3 0 0-0.1 0-0.1 0.1-0.1 0.1-0.1 0.2 0 0.3 0.3 0.2 0.5 0.3 0.8 0.4 0.3 0 0.3 0.2 0.4 0.4 0.1 0.2 0 0.3-0.1 0.5-0.2 0.2-0.4 0.4-0.6 0.6-0.3 0.1-0.5 0.4-0.8 0.4-0.2 0-0.4-0.1-0.5-0.3-0.1-0.5-0.1-0.9 0.1-1.4 0-0.1 0.1-0.2 0-0.3-0.9 0-0.9-0.2-0.9-0.3 0-0.2 0.1-0.3 0.1-0.5 0.1-0.2 0-0.3-0.3-0.4-0.1 0-0.2 0-0.3 0-0.1 0-0.1-0.1-0.3-0.1 0.2-0.1 0.3-0.1 0.5-0.2-0.1-0.4-0.2-0.7-0.5-0.9-0.1-0.1-0.2-0.2-0.2-0.4 0-0.3-0.2-0.5-0.3-0.7-0.2-0.3-0.6-0.4-0.9-0.4-0.3-0.1-0.5-0.1-0.8-0.2-0.3-0.1-0.6-0.4-0.9-0.5-0.1-0.1-0.2-0.2-0.4-0.3-0.4-0.2-0.7-0.5-1-0.8-0.2-0.1-0.3-0.3-0.5-0.4-0.2-0.2-0.3-0.4-0.5-0.5-0.2-0.2-0.4-0.4-0.7-0.6-0.3-0.2-0.5-0.5-0.8-0.8-0.2-0.3-0.5-0.5-0.8-0.7-0.1 0-0.2 0-0.3 0-0.1 0-0.2 0.1-0.3 0.1-0.3 0.1-0.5 0.3-0.8 0.4 0.1-0.1 0.1-0.1 0-0.3-0.1-0.1-0.2-0.2-0.3-0.2-0.2 0-0.4 0-0.6 0-0.4 0-0.8 0.1-1.2 0.1-0.3 0-0.7 0.1-1 0.2 0.1 0.2 0.1 0.3 0.2 0.5-0.2 0.1-0.4 0.1-0.6 0.1-0.1 0-0.3 0.1-0.4 0.2-0.1 0-0.1 0.1-0.2 0-0.2-0.1-0.4 0-0.6 0.1h-0.1c0 0 0-0.1 0.1-0.1 0.1-0.1 0.2-0.2 0.3-0.3 0.1-0.1 0.2-0.1 0.4-0.2-0.1-0.1-0.1-0.2-0.1-0.2-0.1-0.1-0.2-0.1-0.3 0-0.1 0.1-0.2 0.2-0.3 0.3-0.1 0.1-0.2 0.1-0.3 0-0.1-0.1-0.1-0.2 0-0.3 0-0.1 0.1-0.2 0.2-0.3 0.1-0.1 0.1-0.2 0.2-0.3-0.2-0.2-0.3-0.4-0.5-0.5-0.3-0.2-0.6-0.5-0.8-0.8-0.2-0.4-0.5-0.7-0.9-0.9-0.1-0.1-0.2-0.2-0.3-0.3-0.1-0.1-0.1-0.1-0.2-0.2-0.3 0.1-0.5 0.3-0.8 0.4-0.1 0-0.1 0.1-0.2 0.2-0.1 0.2-0.3 0.2-0.5 0.2-0.1 0-0.2-0.1-0.1-0.2 0.1-0.2 0.2-0.4 0.5-0.3 0 0 0.1 0 0.1-0.1 0.2-0.2 0.4-0.5 0.7-0.7-0.1-0.3-0.3-0.5-0.4-0.7-0.1-0.1-0.1-0.2-0.1-0.4 0-0.1 0-0.1-0.1-0.2 0 0-0.1 0-0.2 0.1-0.1 0.1-0.3 0.2-0.5 0 0-0.1 0-0.2 0.1-0.3l0.1-0.1c0.3-0.1 0.3-0.4 0.3-0.7v-0.1c-0.1-0.2-0.1-0.3 0.1-0.5 0.3-0.2 0.6-0.6 0.7-0.9 0.1-0.2 0.3-0.3 0.5-0.5 0.2-0.2 0.4-0.4 0.5-0.7h0.1c0.4 0.1 0.5-0.2 0.7-0.5 0-0.1 0-0.2 0.1-0.2 0.2-0.2 0.2-0.4 0.1-0.7 0-0.1-0.1-0.3-0.1-0.4 0-0.1 0-0.1-0.1-0.2-0.3-0.2-0.3-0.4 0-0.6 0.2-0.1 0.2-0.3 0.3-0.4 0.1-0.2 0.1-0.4 0.1-0.7-0.1-0.3-0.1-0.7-0.2-1-0.1-0.4-0.2-0.9-0.3-1.3 0-0.1 0-0.1 0-0.2 0-0.3 0-0.5-0.1-0.8-0.1-0.1-0.1-0.3-0.1-0.4-0.1-0.3-0.2-0.5-0.5-0.6-0.3-0.2-0.7-0.3-1-0.5-0.1-0.1-0.2 0-0.3 0.1-0.1 0.2-0.3 0.4-0.4 0.6-0.1 0.1-0.2 0.3-0.3 0.5-0.2 0.2-0.6 0.4-0.9 0.1-0.1-0.2-0.2-0.3 0-0.5 0.2-0.3 0.4-0.6 0.7-0.8 0.1-0.1 0.2-0.3 0.3-0.4 0.1-0.2 0.1-0.4 0.1-0.6-0.1-0.4-0.2-0.8-0.2-1.3 0-0.5 0-0.9 0.1-1.4 0.1-0.2 0.1-0.5 0.2-0.7 0-0.1 0.1-0.3 0.2-0.4 0.2-0.2 0.4-0.4 0.5-0.7 0.1-0.3 0.3-0.6 0.3-0.9 0-0.1 0.1-0.2 0.1-0.3 0-0.1 0.1-0.3 0.1-0.4-0.1-0.3 0-0.5 0.1-0.7 0.1-0.2 0.2-0.5 0.3-0.7 0.2-0.4 0.2-0.9 0.6-1.3 0.1-0.2 0.2-0.4 0.3-0.6 0.1-0.4 0.3-0.7 0.5-1 0.1-0.1 0.1-0.1 0.1-0.2 0.1-0.3 0.3-0.6 0.5-0.9 0.2-0.3 0.2-0.6 0.3-0.9 0-0.1 0-0.2 0.1-0.3 0.3-0.3 0.2-0.7 0.1-1.1-0.2-0.5-0.3-1-0.2-1.5 0-0.1 0-0.2 0.1-0.2 0.1-0.2 0.1-0.3 0.2-0.5v-0.1c0.2-0.2 0.4-0.5 0.7-0.6 0.4-0.2 0.8-0.3 1.3-0.4 0.4 0 0.8-0.2 1.1-0.6 0-0.1 0.1-0.1 0.2-0.2l0.1-0.1c0.1-0.2 0.2-0.3 0.3-0.4 0.2-0.2 0.4-0.5 0.6-0.7 0.2-0.2 0.4-0.5 0.7-0.8l0.1-0.1c0.2-0.2 0.4-0.4 0.6-0.5 0.2-0.2 0.4-0.4 0.6-0.6 0.2-0.2 0.3-0.4 0.5-0.6 0.2-0.1 0.4-0.3 0.6-0.5 0.2-0.2 0.4-0.4 0.5-0.5 0.2-0.2 0.5-0.4 0.7-0.5 0.2-0.1 0.4-0.2 0.5-0.5 0.1-0.3 0.2-0.5 0.3-0.8 0-0.2 0.1-0.4 0.2-0.6 0.1 0 0.2 0 0.4-0.1-0.1-0.1-0.2-0.1-0.2-0.2 0-0.1 0.1-0.2 0.1-0.2 0-0.1 0.1-0.2 0.1-0.3 0 0 0.1 0 0.1-0.1 0 0 0.1 0 0.1-0.1-0.2 0.1-0.3 0-0.4-0.1 0.1 0.1 0.2 0.1 0.4 0.2 0 0 0.1 0 0.1-0.1 0-0.1 0-0.2 0-0.2 0 0-0.1 0-0.2 0-0.1 0-0.2 0.1-0.3 0.1zM54 70.5c0-0.1-0.1-0.1-0.1-0.2-0.1-0.2 0-0.3 0.1-0.4 0.1-0.1 0.2-0.1 0.4-0.1 0.2 0.1 0.3 0.2 0.3 0.4 0 0.1 0 0.3 0 0.4 0.1 0.4 0.1 0.4 0.5 0.4 0.2 0 0.4 0 0.6 0 0.4-0.1 0.8-0.3 1.2-0.4 0.4-0.1 0.8-0.2 1.2-0.3 0.1 0 0.2 0 0.4 0 0.4 0.1 0.7 0 1-0.2 0.1-0.1 0.3-0.1 0.4-0.2 0.2-0.1 0.4-0.1 0.6-0.2 0.5-0.3 1-0.5 1.4-0.8 0.3-0.2 0.6-0.4 0.9-0.6 0.3-0.2 0.6-0.4 0.9-0.6 0.2-0.1 0.5-0.3 0.7-0.5 0.4-0.3 0.7-0.6 1.1-0.8 0.2-0.1 0.3-0.2 0.4-0.3 0.2-0.1 0.3-0.3 0.5-0.4 0.1-0.1 0.2-0.2 0.4-0.3 0.1-0.1 0.1-0.1 0.1-0.2 0.3-0.2 0.6-0.6 0.8-0.9 0.2-0.2 0.4-0.4 0.6-0.7 0.3-0.3 0.5-0.7 0.8-1.1 0.2-0.2 0.4-0.5 0.5-0.7 0.2-0.4 0.4-0.8 0.7-1.1v-0.1c0.2-0.4 0.4-0.8 0.6-1.2 0.3-0.5 0.5-1.1 0.8-1.6 0.1-0.2 0.2-0.4 0.2-0.6 0.2-0.4 0.3-0.8 0.4-1.2 0-0.1 0-0.1 0.1-0.2 0.3-0.6 0.5-1.2 0.6-1.9 0.1-0.4 0.2-0.8 0.3-1.2 0.2-0.6 0.2-1.1 0.3-1.7 0.1-0.4 0.1-0.9 0.1-1.3 0.1-0.6 0.1-1.3 0-1.9 0-0.5-0.1-1.1-0.1-1.6 0-0.5-0.1-0.9-0.2-1.4-0.1-0.5-0.2-0.9-0.3-1.4-0.2-0.4-0.3-0.8-0.4-1.3-0.1-0.4-0.3-0.7-0.3-1.1 0-0.3-0.1-0.6-0.4-0.7-0.3-0.1-0.5-0.2-0.8-0.4-0.6-0.4-0.9-0.9-0.8-1.5 0-0.3 0.1-0.7 0.2-1 0.1-0.3 0.2-0.6 0-0.8-0.1-0.3-0.3-0.5-0.4-0.7-0.2-0.3-0.3-0.5-0.5-0.7-0.2-0.4-0.4-0.8-0.7-1.1-0.4-0.5-0.7-1-1.2-1.4l-0.1-0.1c-0.3-0.4-0.6-0.8-1-1.1-0.2-0.2-0.4-0.4-0.6-0.5-0.1-0.1-0.2-0.2-0.4-0.3-0.3-0.2-0.6-0.3-0.8-0.5-0.3-0.3-0.7-0.5-1-0.7 0 0-0.1 0-0.1-0.1-0.4-0.2-0.7-0.3-1.1-0.5-0.4-0.2-0.8-0.3-1.2-0.3-0.1 0-0.1 0-0.2 0-0.1-0.1-0.3-0.1-0.4-0.1-0.1 0-0.1 0-0.2 0-0.2-0.1-0.5 0-0.7 0-0.4 0.1-0.8 0.1-1.2-0.1-0.5-0.2-0.9-0.4-1.3-0.6-0.3-0.2-0.5-0.4-0.8-0.6-0.6-0.5-1.2-1.1-1.9-1.6 0.1-0.5-0.1-0.6-0.5-0.6-0.2 0-0.4 0.1-0.6 0.2-0.1 0.1-0.1 0.1-0.2 0.2-0.3 0.2-0.5 0.5-0.8 0.7-0.5 0.3-0.7 0.2-1.1 0-0.1-0.1-0.2-0.2-0.3-0.3-0.2-0.2-0.4-0.5-0.5-0.7-0.2-0.4-0.6-0.4-1-0.4-0.2 0-0.5 0.1-0.7 0.1-0.4 0-0.8 0.2-1 0.5-0.2 0.3-0.4 0.6-0.7 0.9-0.1 0.1-0.3 0.2-0.4 0.4-0.2 0.2-0.4 0.2-0.6 0-0.1-0.1-0.2-0.1-0.3-0.2-0.1 0.1-0.2 0.2-0.2 0.3-0.1 0.2-0.2 0.4-0.3 0.7-0.1 0.3-0.3 0.6-0.5 0.8-0.1 0.1-0.1 0.1-0.2 0.2-0.1 0.2-0.4 0.3-0.6 0.3-0.2 0.2-0.4 0.5-0.5 0.7-0.1 0.2-0.2 0.4-0.3 0.7-0.1 0.1-0.1 0.3-0.2 0.4-0.1 0.2-0.1 0.3-0.1 0.5 0.1 0.3-0.1 0.4-0.4 0.5-0.2 0-0.2 0-0.3 0.2 0 0.3 0.1 0.5 0.2 0.8 0.1 0.1 0.2 0.3 0.2 0.4 0 0.2 0.1 0.3 0.3 0.4 0.1 0.1 0.2 0.2 0.3 0.2 0.1 0 0.1 0.1 0.2 0.1 0.1 0.1 0.2 0 0.2-0.1 0.1-0.3 0.2-0.6 0.2-0.9 0.1-0.4 0.1-0.7 0.2-1.1 0.1-0.2 0.2-0.3 0.3-0.4 0 0 0.1 0 0.2 0v0.1c-0.1 0.5-0.3 1.1-0.4 1.6-0.1 0.2-0.1 0.4-0.2 0.6 0 0.1-0.1 0.2-0.2 0.2-0.2 0.1-0.4 0.2-0.6 0.2-0.1 0-0.2 0-0.3 0-0.2-0.1-0.4-0.3-0.6-0.4-0.1-0.1-0.2-0.2-0.3-0.3-0.1-0.2-0.2-0.4-0.3-0.6-0.1-0.2-0.2-0.3-0.4-0.4-0.1-0.1-0.2-0.1-0.3-0.2-0.2-0.2-0.4-0.3-0.7-0.3-0.1 0-0.3 0-0.4 0-0.1 0-0.3 0.1-0.4 0.2-0.2 0.1-0.3 0.1-0.5 0-0.5-0.2-1-0.1-1.5 0.1-0.2 0.1-0.4 0.2-0.6 0.2-0.5 0-0.9 0-1.4 0-0.5 0-0.9-0.1-1.4-0.2-0.2 0-0.4 0-0.6 0-0.4 0.1-0.5 0.4-0.4 0.8 0.1 0.4 0.2 0.9 0.2 1.3 0 0.3 0 0.6 0 0.9 0 0.2 0 0.3 0 0.5 0 0.3-0.1 0.6-0.1 0.9-0.1 0.6-0.4 1.1-0.8 1.5-0.3 0.3-0.7 0.6-1.1 0.7-0.2 0.1-0.4 0.2-0.7 0.3-0.5 0.2-0.9 0.6-1.2 1.1-0.1 0.2-0.2 0.4-0.3 0.6-0.2 0.3-0.3 0.5-0.5 0.8-0.1 0.2-0.3 0.4-0.4 0.6-0.1 0.2-0.3 0.3-0.3 0.5-0.2 0.4-0.3 0.8-0.5 1.2-0.1 0.2-0.1 0.5-0.2 0.7-0.2 0.4-0.2 0.8-0.2 1.3 0 0.1 0 0.2 0 0.4 0 0.5-0.1 1.1-0.1 1.6 0 0.5 0 1 0.1 1.5 0 0.2 0 0.5 0 0.7 0 0.4 0.1 0.9 0.1 1.3 0 0.4 0 0.9 0.2 1.3v0.1c0.1 0.4 0.1 0.8 0.2 1.2 0 0.1 0 0.2 0.1 0.3 0.2 0.6 0.3 1.1 0.5 1.7 0.1 0.4 0.3 0.8 0.4 1.2 0.1 0.4 0.5 0.8 0.6 1.3v0c0.3 0.6 0.6 1.2 1 1.8 0.1 0.2 0.3 0.4 0.4 0.6 0.2 0.3 0.3 0.6 0.5 0.8 0.1 0.2 0.3 0.4 0.4 0.5 0.1 0.2 0.2 0.4 0.4 0.6 0.2 0.2 0.4 0.5 0.6 0.7 0.3 0.5 0.7 0.9 1.1 1.2 0.2 0.2 0.4 0.3 0.6 0.5 0.1 0.1 0.2 0.1 0.2 0.2 0.1 0.1 0.2 0.2 0.4 0.3 0.8 0.4 1.4 1 2.1 1.6 0.3 0.3 0.6 0.6 1 0.8 0.4 0.3 0.7 0.6 1.2 0.7 0 0 0.1 0 0.1 0.1 0.2 0.2 0.5 0.3 0.7 0.4 0.4 0.2 0.9 0.4 1.3 0.6 0.1 0.1 0.3 0.1 0.4 0.2 0.3 0.1 0.6 0.2 0.9 0.3 0.3 0.1 0.5 0.2 0.8 0.2h0.1c0.2 0.1 0.3 0.1 0.5 0 0.1 0 0.2 0 0.2 0.1 0 0.1 0.1 0.1 0.2 0.1 0.1 0 0.2 0 0.4 0 0.1-0.1 0.1-0.2 0.2-0.4 0.1 0.1 0.2 0.1 0.2 0.1 0.1 0.2 0.3 0.2 0.5 0.2h0.1c0.2 0 0.3 0 0.4-0.1 0-0.1 0.2-0.1 0.3-0.1 0.3 0.1 0.6 0.1 0.9 0.2 0.2 0.1 0.5 0.1 0.6-0.1 0.1-0.1 0.2-0.2 0.4-0.1 0.2 0.1 0.3 0.1 0.5 0 0.1 0 0.2 0 0.2 0 0.3 0.1 0.5 0.1 0.8 0.2 0.4 0.1 0.4 0.1 0.7-0.2 0.1-0.1 0.3-0.1 0.4 0 0.1 0.2 0.1 0.3 0.1 0.5 0.1 0 0.1 0 0.2-0.1 0-0.2 0.1-0.2 0.3-0.3 0.1 0.1 0.1 0.1 0.2 0.1 0.2 0.2 0.3 0.2 0.4-0.1 0-0.1 0-0.2 0.1-0.2 0.1 0 0.2 0.1 0.2 0.1 0.1 0.2 0.3 0.3 0.4 0.5 0.2 0.2 0.5 0.2 0.6 0 0.1-0.1 0.2-0.1 0.3-0.1 0-0.1 0-0.2 0-0.3 0.3 0.2 0.2 0.2 0.1 0.2zM37.4 23.8c0.3 0.1 0.5 0.1 0.6-0.1-0.2 0.1-0.4-0.1-0.6 0.1z" fill="#fa4238" fill-rule="nonzero" stroke="none" stroke-width="1" stroke-linecap="butt" stroke-linejoin="miter" stroke-miterlimit="10" stroke-dasharray="" stroke-dashoffset="0" font-family="none" font-weight="none" font-size="none" text-anchor="none" style="mix-blend-mode: normal" data-fill-palette-color="tertiary"></path></g><g transform="matrix(1,0,0,1,96.27830737781703,90)"><svg viewBox="0 0 127.44338524436594 180" height="180" width="127.44338524436594"><g><svg viewBox="0 0 127.44338524436594 180" height="180" width="127.44338524436594"><g><svg viewBox="0 0 192 271.1792372254788" height="180" width="127.44338524436594"><g><svg viewBox="0 0 192 155.71653543307085" height="155.71653543307085" width="192"><g id="textblocktransform"><svg viewBox="0 0 192 155.71653543307085" height="155.71653543307085" width="192" id="textblock"><g><svg viewBox="0 0 192 155.71653543307085" height="155.71653543307085" width="192"><g transform="matrix(1,0,0,1,0,0)"><svg width="192" viewBox="-15.48 -46.24 74.42 60.349999999999994" height="155.71653543307085" data-palette-color="#fa4238"><path d="M58.94 2L58.94 2Q58.84 2.98 58.25 3.54 57.67 4.1 56.74 4.1L56.74 4.1Q56.25 4.1 55.81 3.96L55.81 3.96Q54.88 4.69 53.61 5.08 52.34 5.47 51.22 5.86L51.22 5.86Q49.85 5.81 48.54 5.62 47.22 5.42 45.8 5.52L45.8 5.52Q45.31 5.18 44.78 5.08 44.24 4.98 43.68 4.96 43.12 4.93 42.6 4.79 42.09 4.64 41.6 4.1L41.6 4.1 39.16 4.1Q38.82 4.1 38.16 3.78 37.5 3.47 36.69 3.13 35.89 2.78 34.99 2.49 34.08 2.2 33.3 2.2L33.3 2.2 33.01 2.2Q32.47 1.76 31.76 1.54 31.05 1.32 30.32 1.15 29.59 0.98 28.91 0.78 28.22 0.59 27.73 0.24L27.73 0.24Q27.25-0.1 26.61-0.46 25.98-0.83 25.29-0.78L25.29-0.78Q24.37-1.32 23.36-1.71 22.36-2.1 21.34-2.44L21.34-2.44 19.34-3.17Q18.36-3.56 17.38-4.1L17.38-4.1Q17.24-4.05 17.04-4.1 16.85-4.15 16.7-4.15L16.7-4.15Q16.41-4.15 16.36-3.96L16.36-3.96Q16.02-4.3 15.6-4.54 15.19-4.79 14.79-5.13L14.79-5.13Q14.6-5.08 14.43-5.05 14.26-5.03 14.01-5.03L14.01-5.03Q13.57-5.03 13.16-5.13 12.74-5.22 12.35-5.37L12.35-5.37Q11.91-4.39 11.77-3.17 11.62-1.95 11.55-0.66 11.47 0.63 11.38 1.93 11.28 3.22 10.94 4.3L10.94 4.3Q11.04 4.69 11.04 5.08L11.04 5.08 11.04 5.91Q11.04 6.74 11.28 7.23L11.28 7.23Q11.18 7.67 11.11 8.06 11.04 8.45 10.94 8.84L10.94 8.84Q10.99 9.38 11.01 9.84 11.04 10.3 11.04 10.84L11.04 10.84 11.04 11.67Q11.04 12.11 10.94 12.55L10.94 12.55Q10.45 12.84 9.96 13.11 9.47 13.38 8.98 13.77L8.98 13.77Q8.64 13.13 7.81 13.04L7.81 13.04Q7.62 13.28 7.54 13.7 7.47 14.11 7.08 14.11L7.08 14.11Q6.4 13.57 5.96 13.23 5.52 12.89 4.98 12.21L4.98 12.21Q4.93 12.11 4.93 11.96L4.93 11.96Q4.93 11.72 5.03 11.52 5.13 11.33 5.13 11.13L5.13 11.13Q5.13 10.55 4.98 10.11L4.98 10.11Q4.88 9.47 4.83 8.86 4.79 8.25 4.79 7.67L4.79 7.67Q4.79 6.84 4.91 6.05 5.03 5.27 5.37 4.44L5.37 4.44Q5.91 3.03 6.13 1.46 6.35-0.1 6.45-1.68 6.54-3.27 6.57-4.88 6.59-6.49 6.74-7.96L6.74-7.96Q6.4-8.74 5.93-9.2 5.47-9.67 5.47-10.69L5.47-10.69Q5.47-11.62 6.05-12.13 6.64-12.65 7.08-13.38L7.08-13.38Q6.98-13.67 7.23-13.77L7.23-13.77 7.81-18.9Q7.86-19.43 7.98-20.07 8.11-20.7 8.15-21.24L8.15-21.24Q8.25-22.36 8.25-23.44 8.25-24.51 8.35-25.59L8.35-25.59Q8.59-27.98 8.81-30.32 9.03-32.67 9.03-35.01L9.03-35.01Q9.03-36.13 8.96-37.26 8.89-38.38 8.64-39.5L8.64-39.5Q7.81-39.26 6.81-38.99 5.81-38.72 5.13-38.09L5.13-38.09 4.74-38.09Q3.47-38.09 2.37-37.6 1.27-37.11 0.15-36.67L0.15-36.67Q-0.34-36.43-0.83-36.35-1.32-36.28-1.86-36.13L-1.86-36.13Q-2.1-36.08-2.39-35.84-2.69-35.6-2.93-35.5L-2.93-35.5-3.76-35.3Q-4.1-35.21-4.05-34.86-4-34.52-4.3-34.42L-4.3-34.42Q-4.54-34.18-4.98-34.2-5.42-34.23-5.66-34.23L-5.66-34.23-5.86-34.23Q-7.08-33.35-8.23-32.74-9.38-32.13-10.94-31.93L-10.94-31.93-12.01-31.25Q-12.55-30.91-13.23-30.91L-13.23-30.91Q-13.77-30.91-14.11-31.1L-14.11-31.1Q-14.5-31.69-14.72-32.42-14.94-33.15-15.48-33.69L-15.48-33.69Q-15.23-33.94-15.16-34.35-15.09-34.77-14.99-35.11L-14.99-35.11Q-13.53-35.74-12.04-36.33-10.55-36.91-9.18-37.74L-9.18-37.74Q-9.03-37.7-8.74-37.7L-8.74-37.7Q-8.25-37.7-7.86-37.84-7.47-37.99-7.08-38.18-6.69-38.38-6.3-38.53-5.91-38.67-5.37-38.62L-5.37-38.62Q-3.71-39.55-1.86-40.14 0-40.72 1.66-41.75L1.66-41.75Q1.9-41.75 2.08-41.65 2.25-41.55 2.44-41.55L2.44-41.55Q2.64-41.55 2.69-41.6L2.69-41.6Q2.98-41.99 3.47-42.16 3.96-42.33 4.47-42.46 4.98-42.58 5.44-42.8 5.91-43.02 6.05-43.51L6.05-43.51Q6.3-43.31 6.79-43.31L6.79-43.31Q7.62-43.31 8.33-43.65 9.03-43.99 9.86-43.99L9.86-43.99Q10.06-43.99 10.23-43.92 10.4-43.85 10.6-43.85L10.6-43.85Q10.99-43.85 11.01-44.09 11.04-44.34 11.28-44.53L11.28-44.53Q14.26-45.07 17.21-45.51 20.17-45.95 23.19-45.95L23.19-45.95Q23.63-46.24 24.17-46.24L24.17-46.24Q24.71-46.24 25.15-45.95L25.15-45.95Q25.98-46.04 26.81-46.09 27.64-46.14 28.47-46.14L28.47-46.14Q30.37-46.14 32.37-45.9 34.38-45.65 36.35-45.14 38.33-44.63 40.14-43.77 41.94-42.92 43.51-41.75L43.51-41.75Q43.65-41.31 43.9-40.87 44.14-40.43 44.53-40.19L44.53-40.19Q44.53-40.09 44.51-40.04 44.48-39.99 44.48-39.89L44.48-39.89Q44.48-39.36 44.8-38.87 45.12-38.38 45.12-37.7L45.12-37.7Q45.12-37.01 44.9-36.33 44.68-35.64 44.73-34.96L44.73-34.96Q44.19-34.18 43.82-33.54 43.46-32.91 43.36-31.93L43.36-31.93Q42.48-31.05 41.8-30 41.11-28.96 40.41-27.95 39.7-26.95 38.82-26.12 37.94-25.29 36.72-24.8L36.72-24.8Q36.67-24.32 36.33-23.73L36.33-23.73 35.3-23.73Q35.16-23.34 34.81-23.14L34.81-23.14 34.13-22.75Q33.79-22.56 33.57-22.27 33.35-21.97 33.35-21.44L33.35-21.44Q33.25-21.48 33.11-21.48L33.11-21.48Q32.62-21.48 31.96-21 31.3-20.51 30.91-20.21L30.91-20.21Q30.08-19.63 29.22-19.14 28.37-18.65 27.73-17.77L27.73-17.77Q25.78-16.94 24.02-15.84 22.27-14.75 20.21-14.11L20.21-14.11Q19.43-13.28 18.38-12.82 17.33-12.35 16.36-11.82L16.36-11.82 16.36-11.67Q16.36-11.28 16.65-10.91 16.94-10.55 17.33-10.28 17.72-10.01 18.19-9.91 18.65-9.81 18.99-9.91L18.99-9.91Q19.97-9.03 21.24-8.5 22.51-7.96 23.88-7.52 25.24-7.08 26.56-6.59 27.88-6.1 29-5.37L29-5.37 30.18-5.37Q31.3-4.39 32.84-3.91 34.38-3.42 35.79-3.03L35.79-3.03Q36.38-2.49 37.28-2.22 38.18-1.95 39.01-1.95L39.01-1.95 39.31-1.95Q39.5-1.95 39.65-2L39.65-2 39.65-1.9Q39.65-1.66 39.79-1.59 39.94-1.51 40.11-1.49 40.28-1.46 40.45-1.39 40.63-1.32 40.72-1.17L40.72-1.17 41.21-1.17Q42.24-1.17 43.16-0.76 44.09-0.34 45.12-0.34L45.12-0.34Q45.56-0.34 45.8-0.44L45.8-0.44Q46.09-0.34 46.24-0.05 46.39 0.24 46.63 0.44L46.63 0.44Q46.97 0.39 47.27 0.37 47.56 0.34 47.85 0.34L47.85 0.34Q48.93 0.34 49.85 0.59 50.78 0.83 51.76 1.32L51.76 1.32Q53.32 0.63 54.83 0.2 56.35-0.24 58.06-0.24L58.06-0.24 58.06-0.15Q58.06 0.44 58.37 0.95 58.69 1.46 58.94 2ZM40.23-36.96L40.23-36.96Q40.23-37.55 40.01-37.89 39.79-38.23 39.45-38.5 39.11-38.77 38.75-39.01 38.38-39.26 38.09-39.65L38.09-39.65Q36.82-40.04 35.6-40.53 34.38-41.02 33.11-41.36L33.11-41.36Q32.47-41.5 31.84-41.63 31.2-41.75 30.57-41.75L30.57-41.75 29.49-41.75Q29.2-41.8 28.88-41.87 28.56-41.94 28.27-41.99L28.27-41.99Q27.59-42.09 26.93-42.14 26.27-42.19 25.59-42.19L25.59-42.19Q24.32-42.19 23.05-42.09L23.05-42.09 20.51-41.89Q19.97-41.85 19.38-41.85 18.8-41.85 18.31-41.75L18.31-41.75Q18.07-41.7 17.63-41.53 17.19-41.36 16.7-41.19 16.21-41.02 15.75-40.82 15.28-40.63 14.94-40.53L14.94-40.53Q14.99-40.19 14.99-39.84L14.99-39.84 14.99-39.21Q14.99-38.48 14.94-37.74 14.89-37.01 14.75-36.28L14.75-36.28Q14.7-35.99 14.6-35.69 14.5-35.4 14.45-35.11L14.45-35.11Q14.36-34.67 14.36-34.13L14.36-34.13 14.36-33.2Q14.26-32.08 14.21-31.01 14.16-29.93 14.06-28.81L14.06-28.81Q13.77-25.59 13.45-22.41 13.13-19.24 13.04-16.02L13.04-16.02Q14.65-16.36 16.11-17.04 17.58-17.72 18.99-18.53 20.41-19.34 21.83-20.12 23.24-20.9 24.8-21.44L24.8-21.44Q25.2-21.97 25.76-22.31 26.32-22.66 26.71-23.19L26.71-23.19Q27.2-23.19 27.44-23.41 27.69-23.63 28.08-23.73L28.08-23.73Q30.42-25.78 32.86-27.59 35.3-29.39 37.55-31.45L37.55-31.45Q37.74-32.13 38.21-32.79 38.67-33.45 39.11-34.13 39.55-34.81 39.89-35.5 40.23-36.18 40.23-36.96Z" opacity="1" transform="matrix(1,0,0,1,0,0)" fill="#fa4238" class="wordmark-text-0" data-fill-palette-color="primary" id="text-0"></path></svg></g></svg></g></svg></g></svg></g><g transform="matrix(1,0,0,1,66.336,192.4774722519685)"><svg viewBox="0 0 59.328 78.70176497351032" height="78.70176497351032" width="59.328"><g><svg xmlns="http://www.w3.org/2000/svg" xmlns:xlink="http://www.w3.org/1999/xlink" version="1.1" x="0" y="0" viewBox="19.942 3.5659999999999883 67.84498897834396 90.0000063579427" enable-background="new 0 0 100 100" xml:space="preserve" height="78.70176497351032" width="59.328" class="icon-icon-0" data-fill-palette-color="accent" id="icon-0"><path d="M50.192 37.404c0 0-1.707 0.537-3.293 0 0.635-0.076 1.27-0.267 1.27-0.267 0.212-0.115 0.376 0.182 0.376 0.182s0.165-0.297 0.376-0.182C48.922 37.137 49.557 37.328 50.192 37.404zM87.385 69.299c-0.329 0.133-0.703-0.026-0.836-0.354l-11.787-29.12c-0.543 0.26-1.085 0.519-1.627 0.779l3.229 7.99c-11.728 6.42-20.725-1-20.725-1s-0.802-0.085-0.802 1.844c0 0 3.849 30.835 10 41.282h-6.435l0 0.382c-0.145 1.408-1.26 2.467-2.569 2.464-1.362-0.002-2.61-1.095-2.701-2.479l0-0.367h-9.173l-0.001 0.367c-0.091 1.384-1.339 2.477-2.701 2.479-1.309 0.002-2.423-1.057-2.568-2.464l0-0.382h-6.435c6.151-10.446 10-41.282 10-41.282 0-1.93-0.802-1.844-0.802-1.844s-8.996 7.42-20.725 1l3.229-7.99c-0.508-0.244-1.016-0.487-1.525-0.73l-0.127 0.409 0.383 0.117-0.403 1.317-2.342-0.716 0.403-1.317 0.349 0.107 0.319-1.031c-0.441-0.651-0.533-1.433-0.19-2.151 0.243-0.508 0.661-0.855 1.174-1.028l0.643-2.078-2.089-0.639 0.224-0.732 1.31 0.4 7.449-23.498 3.138-5.468-0.457 6.288-6.961 23.647 1.304 0.399-0.224 0.732-2.083-0.637-0.509 1.645c0.121 0.042 0.241 0.081 0.363 0.139 0.419 0.197 0.836 0.397 1.254 0.595l0.393-1.184c1.08 1.358 4.772 3.49 6.848 4.626 1.279 0.612 2.558 1.223 3.838 1.833 1.082 0.516 1.985 0.057 1.985 0.057 3.275-1.155 4.641-1.002 4.641-1.002h1.967c-0.098-1.095-0.38-2.544-0.603-3.58-0.65-0.864-1.049-1.926-1.049-3.09 0-0.203 0.037-0.395 0.06-0.592-6.631-0.14-11.316-0.44-11.316-0.44s4.125-0.55 6.188-2.063c0 0 4.262-2.612 5.775-3.85 0 0 2.2-5.362 4.95-7.013 0 0 6.325-4.262 6.875-5.775 0 0 0.55 2.063-1.1 4.125 0 0-2.612 1.788-2.475 3.3 0 0 1.21 4.855 1.1 5.912 0 0 2.613 1.1 4.813 3.025 0 0 2.887 1.65 7.15 2.338-3.864 0.289-7.885 0.432-11.741 0.485 0.019 0.182 0.055 0.36 0.055 0.547 0 1.165-0.4 2.227-1.05 3.091-0.223 1.036-0.505 2.484-0.603 3.579h1.968c0 0 1.366-0.154 4.641 1.002 0 0 0.903 0.459 1.985-0.057 1.28-0.61 2.559-1.222 3.838-1.833 2.076-1.136 5.768-3.269 6.848-4.626l0.393 1.184c0.418-0.197 0.836-0.398 1.254-0.595 0.04-0.019 0.079-0.028 0.119-0.046l-6.69-16.527c-0.738-0.129-1.516-0.853-1.94-1.9-0.556-1.375-0.291-2.779 0.593-3.137 0.884-0.358 2.052 0.466 2.609 1.841 0.424 1.047 0.368 2.108-0.072 2.714l6.775 16.738c0.838 0.012 1.539 0.418 1.886 1.147 0.397 0.831 0.206 1.746-0.432 2.446L87.74 68.463C87.873 68.792 87.714 69.166 87.385 69.299zM66.19 15.195c-0.074-0.182-0.281-0.27-0.463-0.196-0.182 0.074-0.27 0.281-0.196 0.463 0.074 0.182 0.281 0.27 0.463 0.196C66.175 15.585 66.263 15.377 66.19 15.195zM52.049 37.81c0.092-0.459 0.184-0.883 0.261-1.227-0.561 0.488-1.088 0.608-1.471 0.608-0.554 0-0.924-0.245-0.94-0.256-0.452-0.447-1.18-0.469-1.32-0.469h-0.066c-0.142 0-0.87 0.022-1.289 0.441-0.049 0.039-0.419 0.284-0.971 0.284-0.385 0-0.911-0.121-1.472-0.609 0.077 0.343 0.168 0.767 0.26 1.226 0.093 0.466 0.187 0.968 0.266 1.463 0.001 0.005 0.002 0.01 0.002 0.015 0.078 0.487 0.142 0.965 0.179 1.396 0.03 0.338 0.046 0.653 0.036 0.908-0.003 0.047-0.212 4.712 0.102 6.109 0.611 2.648 2.297 2.853 2.8 2.853 0.057 0 0.092-0.003 0.098-0.003 0.052 0 0.086 0.003 0.143 0.003 0.501 0 2.187-0.205 2.798-2.854 0.314-1.396 0.105-6.061 0.102-6.107-0.011-0.256 0.006-0.572 0.036-0.91 0.038-0.43 0.101-0.907 0.179-1.393 0.001-0.006 0.002-0.012 0.003-0.018C51.863 38.777 51.956 38.276 52.049 37.81z" fill="#fa4238" data-fill-palette-color="accent"></path></svg></g></svg></g><g></g></svg></g></svg></g></svg></g></svg></g><defs></defs></svg><rect width="320" height="360" fill="none" stroke="none" visibility="hidden"></rect></g></svg></g></svg>